<svg xmlns="http://www.w3.org/2000/svg" viewBox="0 0 800 800" width="800" height="800">
  <!-- Placeholder product visual — replace assets/product.svg (or the <img> src) with your product photo -->
  <defs>
    <linearGradient id="bg" x1="0" y1="0" x2="1" y2="1">
      <stop offset="0" stop-color="#f4f1ec"/>
      <stop offset="1" stop-color="#e4ddd2"/>
    </linearGradient>
    <linearGradient id="bag" x1="0" y1="0" x2="0" y2="1">
      <stop offset="0" stop-color="#1f8a5b"/>
      <stop offset="1" stop-color="#14603e"/>
    </linearGradient>
  </defs>
  <rect width="800" height="800" rx="48" fill="url(#bg)"/>
  <g transform="translate(400 420)">
    <path d="M-170 -90 h340 a28 28 0 0 1 28 30 l-26 300 a40 40 0 0 1 -40 36 h-264 a40 40 0 0 1 -40 -36 l-26 -300 a28 28 0 0 1 28 -30 z" fill="url(#bag)"/>
    <path d="M-92 -88 v-44 a92 92 0 0 1 184 0 v44" fill="none" stroke="#0d3f28" stroke-width="26" stroke-linecap="round"/>
    <circle cx="-92" cy="-84" r="16" fill="#0d3f28"/>
    <circle cx="92" cy="-84" r="16" fill="#0d3f28"/>
  </g>
  <text x="400" y="720" text-anchor="middle" font-family="Arial, sans-serif" font-size="34" fill="#8b8577">VOTRE PRODUIT ICI</text>
</svg>
